<svg width="28" height="28" viewBox="0 0 28 28" fill="none" xmlns="http://www.w3.org/2000/svg">
<path d="M28 14C28 21.7315 21.7315 28 14 28C6.2685 28 0 21.7315 0 14C0 11.8697 0.474833 9.8525 1.3265 8.04417C0.792109 9.37671 0.513474 10.798 0.505167 12.2337C0.505167 18.5733 5.62333 19.4903 7.8015 19.4705C11.1113 19.4402 14.9812 17.8185 18.2408 14.8143L17.6913 17.906C17.5677 18.6118 18.0297 19.2337 18.7367 19.2383H19.0283C19.7598 19.2383 20.2802 18.6422 20.412 17.9048L21.5857 11.2992C21.7257 10.5665 21.2438 9.96917 20.5112 9.96917H13.8927C13.1577 9.96917 12.4845 10.3588 12.3527 11.0985L12.3013 11.396C12.1963 12.0995 12.6863 12.6292 13.3875 12.6292H16.8408L16.6752 12.7913C14.2952 15.043 11.3598 16.2773 8.9285 16.2773C6.50183 16.2773 3.7835 14.7455 3.7835 11.2968C3.7835 4.1475 10.4883 0 14 0C21.7163 0 28 6.2685 28 14Z" fill="#FF7700"/>
</svg>
